<svg xmlns="http://www.w3.org/2000/svg" height="16" width="24" fill-rule="evenodd" xmlns:v="https://vecta.io/nano"><rect fill="#016fd0" height="16" rx="2" width="24"/><path d="M13.764 13.394V7.692l10.148.009v1.575l-1.173 1.253 1.173 1.265v1.608h-1.873l-.995-1.098-.988 1.102z" fill="#fffffe"/><g fill="#016fd0"><path d="M14.442 12.769V8.32h3.772v1.025h-2.551v.696h2.49v1.008h-2.49v.683h2.551v1.037z"/><path d="M18.195 12.769l2.087-2.227-2.087-2.222h1.616l1.275 1.41 1.279-1.41h1.546v.035l-2.043 2.187 2.043 2.164v.063H22.35l-1.298-1.424-1.285 1.424z"/></g><path d="M14.237 2.632h2.446l.859 1.951V2.632h3.02l.521 1.462.523-1.462h2.306v5.701H11.725z" fill="#fffffe"/><g fill="#016fd0"><path d="M14.7 3.251l-1.974 4.445h1.354l.372-.89h2.018l.372.89h1.388l-1.966-4.445zm.17 2.557l.592-1.415.592 1.415z"/><path d="M18.212 7.696V3.251l1.903.007.979 2.733.986-2.739h1.832v4.445l-1.179.01V4.653L21.62 7.696h-1.076l-1.136-3.053v3.053z"/></g></svg>