<svg xmlns="http://www.w3.org/2000/svg" width="24" height="16" xmlns:v="https://vecta.io/nano"><path d="M21.997 15.75h.002c.955.008 1.739-.773 1.751-1.746V2.006a1.79 1.79 0 0 0-.52-1.25A1.72 1.72 0 0 0 21.997.25H2.001A1.72 1.72 0 0 0 .77.757c-.329.329-.516.779-.52 1.247v11.989a1.79 1.79 0 0 0 .52 1.25 1.72 1.72 0 0 0 1.232.507h19.994zm-.001.5h.001-.001z" stroke-opacity=".2" stroke="#000" stroke-width=".5" fill="#fff"/><path d="M10.002 2.052v-.016h4v.016a6 6 0 0 1 0 11.968v.016h-4v-.016a6 6 0 0 1 0-11.968z" fill="#0165ac"/><path d="M11.602 11.428a3.6 3.6 0 0 0 0-6.784v6.784h0zm-2.4-6.784a3.6 3.6 0 0 0 0 6.784V4.644h0zm1.2 8.592a5.2 5.2 0 1 1 0-10.4 5.2 5.2 0 1 1 0 10.4z" fill="#fff"/></svg>