<svg xmlns="http://www.w3.org/2000/svg" width="24" height="16" xmlns:v="https://vecta.io/nano"><path d="M21.997 15.75h.002c.955.008 1.739-.773 1.751-1.746V2.006a1.79 1.79 0 0 0-.52-1.25A1.72 1.72 0 0 0 21.997.25H2.001A1.72 1.72 0 0 0 .77.757c-.329.329-.516.779-.52 1.247v11.989a1.79 1.79 0 0 0 .52 1.25 1.72 1.72 0 0 0 1.232.507h19.994zm-.001.5h.001-.001z" stroke-opacity=".2" stroke="#000" stroke-width=".5" fill="#fff"/><path d="M12.612 16h9.385c.527.004 1.034-.201 1.409-.57s.589-.873.593-1.4v-2.359A38.74 38.74 0 0 1 12.612 16h0z" fill="#f27712"/><path d="M23.172 9.296h-.852l-.96-1.266h-.091v1.266h-.695V6.152H21.6c.803 0 1.266.331 1.266.927 0 .488-.29.803-.811.902l1.117 1.316zm-1.026-2.193c0-.306-.232-.463-.662-.463h-.215v.952h.199c.447 0 .679-.166.679-.488h0zm-4.006-.952h1.97v.53h-1.274v.703h1.225v.538h-1.225v.852h1.274v.53h-1.97V6.152zm-2.234 3.228L14.4 6.143h.761l.952 2.119.96-2.119h.745l-1.523 3.236h-.372-.017zm-6.298-.008c-1.059 0-1.887-.72-1.887-1.655 0-.91.844-1.647 1.903-1.647.298 0 .546.058.852.19v.728a1.24 1.24 0 0 0-.869-.356c-.662 0-1.167.48-1.167 1.084 0 .637.497 1.092 1.2 1.092.314 0 .554-.099.836-.348v.728a2.13 2.13 0 0 1-.869.182h0zM7.506 8.336c0 .612-.505 1.034-1.233 1.034-.53 0-.91-.182-1.233-.596l.455-.389c.157.281.422.422.753.422.314 0 .538-.19.538-.439 0-.141-.066-.248-.207-.331a2.88 2.88 0 0 0-.48-.182c-.654-.207-.877-.43-.877-.869 0-.513.48-.902 1.109-.902a1.68 1.68 0 0 1 1.051.356l-.364.414a.76.76 0 0 0-.563-.248c-.298 0-.513.149-.513.348 0 .166.124.257.538.397.794.248 1.026.48 1.026.993v-.008zM4.088 6.152h.695v3.153h-.695V6.152zM1.854 9.305H.828V6.152h1.026c1.126 0 1.903.646 1.903 1.572 0 .472-.232.919-.637 1.217-.348.248-.737.364-1.274.364h.008zm.811-2.367c-.232-.182-.497-.248-.952-.248h-.19v2.086h.19c.447 0 .728-.083.952-.248a1.05 1.05 0 0 0 .381-.803c0-.306-.141-.596-.381-.786z" fill="#000"/><path d="M12.414 6.069c-.91 0-1.655.728-1.655 1.63 0 .96.712 1.68 1.655 1.68a1.64 1.64 0 0 0 1.655-1.655c0-.927-.72-1.655-1.655-1.655z" fill="#f27712"/></svg>