<svg xmlns="http://www.w3.org/2000/svg" height="16" width="23" xmlns:v="https://vecta.io/nano"><path d="M.205 16h4.518c1.028 0 2.259-1.195 2.259-2.133V0H2.464C1.436 0 .205 1.195.205 3.2z" fill="#047ab1"/><path d="M2.769 10.816a9.77 9.77 0 0 1-2.564-.341V9.301c.647.378 1.386.591 2.146.619.87 0 1.355-.576 1.355-1.365V5.333h2.146v3.221c0 1.259-.7 2.261-3.083 2.261z" fill="#fff"/><path d="M8.112 16h4.518c1.028 0 2.259-1.195 2.259-2.133V0h-4.518C9.343 0 8.112 1.195 8.112 3.2z" fill="#d42d06"/><path d="M8.112 6.08c.655-.597 1.785-.971 3.614-.885a10.96 10.96 0 0 1 2.033.32v1.184c-.594-.339-1.262-.547-1.954-.608-1.389-.117-2.236.619-2.236 1.909s.847 2.027 2.236 1.92c.692-.066 1.36-.277 1.954-.619v1.173s-1.039.288-2.033.331c-1.83.085-2.959-.288-3.614-.885z" fill="#fff"/><path d="M16.018 16h4.518c1.028 0 2.259-1.195 2.259-2.133V0h-4.518c-1.028 0-2.259 1.195-2.259 3.2z" fill="#67b637"/><path d="M21.665 9.28c0 .853-.7 1.387-1.638 1.387h-4.01V5.333h3.648l.26.011c.825.043 1.434.501 1.434 1.291 0 .619-.418 1.152-1.175 1.28v.032c.836.053 1.48.555 1.48 1.333zm-2.88-3.104c-.049-.007-.098-.01-.147-.011h-1.355v1.344h1.502c.282-.064.52-.309.52-.672s-.237-.608-.52-.661zm.169 2.176a1.03 1.03 0 0 0-.181-.011h-1.491v1.461h1.491l.181-.021c.282-.064.52-.341.52-.715s-.226-.64-.52-.715z" fill="#fff"/></svg>