<svg xmlns="http://www.w3.org/2000/svg" height="16" width="24" xmlns:v="https://vecta.io/nano"><path d="M4.546 0h5.794c.809 0 1.312.726 1.123 1.619L8.765 14.368c-.19.89-1 1.616-1.809 1.616H1.163c-.808 0-1.312-.726-1.123-1.616L2.738 1.619C2.927.726 3.736 0 4.546 0" fill="#dd2423"/><path d="M9.858 0h6.663c.809 0 .444.726.254 1.619l-2.697 12.749c-.189.89-.13 1.616-.941 1.616H6.474c-.81 0-1.312-.726-1.121-1.616L8.049 1.619C8.241.726 9.048 0 9.858 0" fill="#16315e"/><path d="M16.256 0h5.794c.81 0 1.313.726 1.123 1.619l-2.697 12.749c-.19.89-1.001 1.616-1.81 1.616h-5.791c-.81 0-1.313-.726-1.123-1.616l2.697-12.749C14.637.726 15.446 0 16.256 0" fill="#036862"/><path d="M6.059 4.086c-.596.007-.772 0-.828-.015l-.425 2.156c-.087.413-.15.707-.363.898a.61.61 0 0 1-.428.164c-.264 0-.418-.144-.444-.418l-.005-.094.08-.556.498-2.106c.004-.014.005-.021.006-.028-.821.008-.967 0-.977-.015-.006.02-.026.135-.026.135l-.431 2.097-.037.178-.072.582c0 .173.031.313.092.432.196.378.756.434 1.073.434.408 0 .791-.095 1.05-.27.449-.292.567-.749.671-1.154l.049-.208.509-2.184c.003-.014.004-.021.008-.028zm1.479 1.559a1.06 1.06 0 0 0-.468.121c-.062.035-.121.076-.184.117l.056-.223-.031-.038-.783.144-.028.021c-.039.357-.074.626-.219 1.327l-.17.778.016.033.75-.015.024-.029.128-.701.163-.822c.075-.038.149-.076.22-.076.168 0 .148.162.141.226a8.84 8.84 0 0 1-.131.764l-.042.196-.091.428.013.029.735-.015.034-.029.161-.915.047-.225c.091-.44.137-.663.068-.844-.073-.203-.248-.253-.408-.253zm1.652.46l-.411.08-.399.065-.014.014-.013.011-.055.413-.103.568-.083.32c-.022.066-.046.131-.091.316l.01.017.009.016.38-.016.399.001.015-.014.017-.015.045-.293.107-.531.097-.458.101-.458-.005-.018zm.004-.621c-.164-.107-.453-.073-.647.075s-.216.35-.052.458.451.073.644-.076.217-.351.055-.457zm.994 2.473c.333 0 .673-.101.93-.4.197-.243.288-.604.319-.753.102-.493.023-.723-.077-.864-.152-.214-.42-.282-.698-.282-.167 0-.565.018-.877.334-.223.228-.327.537-.389.833-.063.302-.135.845.319 1.048a1.22 1.22 0 0 0 .472.084zm-.026-1.109c.077-.373.167-.687.398-.687.181 0 .194.233.114.608-.014.083-.08.392-.17.524-.062.097-.136.156-.218.156-.024 0-.169 0-.171-.236a1.76 1.76 0 0 1 .047-.365zm2.107 1.061l.026-.029.125-.701.165-.822c.075-.038.148-.076.221-.076.167 0 .147.162.14.226-.006.108-.067.461-.131.764l-.04.196-.093.428.013.029.734-.015.035-.029.161-.915.046-.225c.092-.44.138-.662.07-.844-.075-.203-.251-.253-.409-.253-.105 0-.297.028-.468.121l-.183.117.052-.223-.028-.038-.784.145-.026.021-.219 1.327-.17.778.015.033.749-.015zm2.509.015l.15-.799.115-.52s.034-.052.068-.073h.05c.474 0 1.01 0 1.43-.34.286-.233.481-.578.568-.996a1.65 1.65 0 0 0 .039-.347c0-.16-.029-.319-.114-.443-.214-.33-.64-.336-1.133-.338l-.243.002c-.63.009-.883.006-.986-.008l-.025.14-.226 1.153-.565 2.563.87.004zm.418-2.045l.239-1.145.008-.059.003-.045.096.011.506.048c.195.083.276.298.22.577-.051.256-.202.471-.396.575-.159.088-.355.095-.556.095h-.13zm1.494.99c-.063.298-.136.841.315 1.035a.81.81 0 0 0 .404.08c.139-.008.267-.085.386-.195l-.032.136.02.029.778-.012.032-.027.233-1.292.197-.91-.01-.033-.81.145-.027.024-.011.09c-.054-.097-.133-.179-.255-.231-.155-.067-.521.019-.835.334-.221.225-.326.532-.387.828zm.763.018c.078-.367.167-.677.399-.677.146 0 .224.149.208.402l-.042.205-.073.325c-.025.074-.054.144-.086.19-.06.093-.201.151-.283.151-.023 0-.166 0-.171-.232-.001-.116.02-.234.047-.365zm3.987-1.211l-.028-.035-.755.142-.024.027-.005.011-.439.982-.002-.06-.05-1.066-.031-.035-.734.142-.027.027c-.004.013-.004.027-.006.042l.002.005.077.576.068.567.095.945-.517.963.002.004-.159.277c-.018.029-.035.049-.058.058-.025.014-.058.016-.104.016h-.088l-.131.48.45.009c.264-.001.43-.137.52-.32l.283-.534h-.005l.03-.038c.19-.451 1.638-3.186 1.638-3.186zm-4.75 6.309h-.191l.707-2.573h.234l.074-.265.007.295c-.009.182.121.344.463.317h.396l.136-.495h-.149c-.086 0-.125-.024-.12-.075l-.007-.3h-.733v.002l-1.087.067c-.173.049-.356.194-.356.194l.072-.265h-.685l-.143.527-.716 2.612h-.139l-.136.492h1.365l-.046.164h.672l.045-.164h.189zm-.56-2.05c-.11.033-.314.135-.314.135l.182-.658h.544l-.131.479s-.168.011-.281.044zm.01.939l-.284.052c-.111.037-.319.154-.319.154l.188-.684h.547zm-.305 1.117h-.546l.158-.578h.544zm1.315-1.596h.787l-.113.403h-.798l-.12.441h.698l-.528.819c-.037.06-.07.081-.107.098s-.086.045-.142.045h-.194l-.133.483h.506c.263 0 .419-.132.534-.305l.362-.546.078.554c.017.104.084.165.13.188s.103.076.177.083l.175.007h.249l.149-.54h-.098c-.056 0-.153-.01-.17-.03s-.017-.06-.025-.115l-.079-.556h-.323l.142-.186h.796l.122-.441h-.737l.115-.403h.735l.136-.497h-2.191zm-6.648 1.708l.184-.673h.755l.138-.5h-.756l.115-.414h.739l.137-.485H9.966l-.134.485h.42l-.112.414h-.421l-.14.509h.42l-.245.89c-.033.118.016.163.046.217s.063.089.135.109.125.029.194.029h.851l.152-.554-.377.057c-.073 0-.275-.01-.253-.084zm.087-3.221l-.191.381c-.041.083-.078.135-.111.159s-.087.028-.171.028h-.1l-.133.487h.332a.7.7 0 0 0 .34-.097c.063-.037.079-.016.128-.067l.112-.107h1.035l.137-.507h-.758l.132-.277zm1.529 3.231c-.018-.028-.005-.077.022-.18l.283-1.031h1.007l.322-.01c.074-.009.154-.038.242-.09s.137-.112.176-.179.114-.211.174-.434l.356-1.305-1.045.007s-.322.052-.463.11c-.143.064-.347.244-.347.244l.094-.358h-.645l-.904 3.299-.058.277c-.002.06.069.12.115.165.054.045.134.038.211.045s.195.011.354.011h.496l.152-.566-.444.046c-.047 0-.082-.028-.096-.052zm.488-1.907h1.057l-.067.232c-.009.005-.032-.012-.14.002h-.916zm.212-.778h1.066l-.077.279s-.503-.005-.583.011c-.354.067-.561.276-.561.276zm.802 1.787c-.009.035-.023.056-.042.072s-.056.021-.108.021h-.151l.009-.282H12.7l-.025 1.381c-.001.1.008.157.074.203.066.058.27.065.545.065h.393l.142-.517-.342.021-.114.007c-.016-.007-.03-.014-.047-.032s-.039-.006-.035-.106l.003-.354.359-.016a.44.44 0 0 0 .347-.135c.067-.063.089-.136.115-.234l.06-.313h-.493z" fill="#fefefe"/></svg>