<svg xmlns="http://www.w3.org/2000/svg" width="24" height="16" xmlns:v="https://vecta.io/nano"><rect stroke-opacity=".2" stroke="#000" stroke-width=".5" fill="#fff" x=".25" y=".25" width="23.5" height="15.5" rx="2"/><path d="M2.788 5.914A7.2 7.2 0 0 0 1 5.237l.028-.125h2.737c.371.013.672.125.77.519l.595 2.836.182.854 1.666-4.209h1.799l-2.674 6.166H4.304L2.788 5.914h0zm7.312 5.37H8.399l1.064-6.172h1.701L10.1 11.284zm6.167-6.021l-.231 1.333-.154-.066c-.308-.125-.714-.25-1.267-.236-.672 0-.973.269-.98.532 0 .289.364.479.959.762.98.44 1.435.978 1.428 1.681-.014 1.28-1.176 2.108-2.961 2.108-.763-.007-1.498-.158-1.897-.328l.238-1.386.224.099a3.57 3.57 0 0 0 1.596.328c.49 0 1.015-.191 1.022-.604 0-.269-.224-.466-.882-.768-.644-.296-1.505-.788-1.491-1.674C11.878 5.84 13.061 5 14.741 5c.658 0 1.19.138 1.526.263zm2.261 3.835h1.414l-.392-1.786-.119-.532-.224.591-.679 1.727zm2.1-3.986L22 11.284h-1.575l-.203-.926h-2.184l-.357.926h-1.785l2.527-5.66c.175-.401.483-.512.889-.512h1.316 0z" fill="#1434cb"/></svg>